<?xml version="1.0" encoding="UTF-8" standalone="no"?>
<!-- Created with Inkscape (http://www.inkscape.org/) -->

<svg
   width="25mm"
   height="36.867397mm"
   viewBox="0 0 25 36.867397"
   version="1.1"
   id="svg1"
   xml:space="preserve"
   sodipodi:docname="BLDC1.svg"
   inkscape:version="1.3.2 (091e20e, 2023-11-25, custom)"
   xmlns:inkscape="http://www.inkscape.org/namespaces/inkscape"
   xmlns:sodipodi="http://sodipodi.sourceforge.net/DTD/sodipodi-0.dtd"
   xmlns="http://www.w3.org/2000/svg"
   xmlns:svg="http://www.w3.org/2000/svg"><sodipodi:namedview
     id="namedview1"
     pagecolor="#ffffff"
     bordercolor="#999999"
     borderopacity="1"
     inkscape:showpageshadow="2"
     inkscape:pageopacity="0"
     inkscape:pagecheckerboard="0"
     inkscape:deskcolor="#d1d1d1"
     inkscape:document-units="mm"
     showgrid="true"
     inkscape:zoom="0.9055374"
     inkscape:cx="-122.57914"
     inkscape:cy="51.350723"
     inkscape:window-width="1920"
     inkscape:window-height="991"
     inkscape:window-x="-9"
     inkscape:window-y="-9"
     inkscape:window-maximized="1"
     inkscape:current-layer="layer1"><inkscape:grid
       id="grid30"
       units="mm"
       originx="30"
       originy="80.999999"
       spacingx="5.02"
       spacingy="0.99999998"
       empcolor="#0099e5"
       empopacity="0.30196078"
       color="#0099e5"
       opacity="0.14901961"
       empspacing="5"
       dotted="false"
       gridanglex="30"
       gridanglez="30"
       visible="true" /></sodipodi:namedview><defs
     id="defs1"><clipPath
       clipPathUnits="userSpaceOnUse"
       id="clipPath29"><rect
         style="fill:#4d4d4d;fill-opacity:0.14794;stroke-width:0.250279"
         id="rect30"
         width="89.700417"
         height="130.60614"
         x="56.099285"
         y="80.05835" /></clipPath></defs><g
     inkscape:label="Ebene 1"
     inkscape:groupmode="layer"
     id="layer1"
     transform="translate(-80.830105,-94.08317)"><g
       id="breadboard"
       clip-path="url(#clipPath29)"
       transform="matrix(0.28289879,0,0,0.28289879,64.824016,71.43476)"><path
         style="fill:#dadada;fill-opacity:1"
         d="m 67.228331,210.25736 -10.649479,-0.0718 v -43.25637 -43.25638 h 10.847917 10.847916 v -5.55225 -5.55225 l 7.739062,-0.0701 7.739062,-0.0701 0.06816,-16.338019 0.06817,-16.33802 h 7.009441 7.00944 V 96.156237 112.5604 h 7.67291 7.67292 v 5.55625 5.55625 h 10.84792 10.84791 v 43.21709 43.21709 l -12.20886,0.16033 c -11.57008,0.15194 -42.19957,0.1473 -65.512488,-0.01 z"
         id="path29" /><path
         style="fill:#d4d4d4;fill-opacity:1"
         d="m 67.228331,210.25736 -10.649479,-0.0718 v -43.25637 -43.25638 h 10.842549 10.842548 l 0.07151,-5.4901 0.07151,-5.49011 7.739062,-0.0701 7.739062,-0.0701 V 96.152131 79.751961 h 7.011457 7.01146 v 16.404166 16.404163 h 7.67291 7.67292 v 5.55625 5.55625 h 10.84792 10.84791 v 43.21709 43.21709 l -12.20886,0.16033 c -11.57008,0.15194 -42.199569,0.1473 -65.512487,-0.01 z"
         id="path28" /><path
         style="fill:#cecece;fill-opacity:1"
         d="m 70.006456,210.25526 -13.427604,-0.0686 v -43.25695 -43.25695 h 10.842549 10.842548 l 0.07151,-5.4901 0.07151,-5.49011 7.739062,-0.0701 7.739062,-0.0701 V 96.152131 79.751961 h 7.011457 7.01146 v 16.404166 16.404163 h 7.67291 7.67292 v 5.55625 5.55625 h 10.84792 10.84791 v 43.25938 43.25937 l -8.79739,0.0179 c -4.83857,0.01 -18.67959,0.0396 -30.75781,0.0661 -12.078231,0.0266 -28.00284,0.0174 -35.388022,-0.0203 z M 106.84968,96.42071 V 80.545711 h -6.08541 -6.085419 v 15.874999 15.875 h 6.085419 6.08541 z"
         id="path27" /><path
         style="fill:#c8c8c8;fill-opacity:1"
         d="m 70.006456,210.25526 -13.427604,-0.0686 v -43.25695 -43.25695 h 10.842549 10.842548 l 0.07151,-5.4901 0.07151,-5.49011 7.739062,-0.0701 7.739062,-0.0701 V 96.152131 79.751961 h 7.011457 7.01146 v 16.404166 16.404163 h 7.67291 7.67292 v 5.55625 5.55625 h 10.84792 10.84791 v 43.25938 43.25937 l -8.79739,0.0148 c -4.83857,0.008 -18.67959,0.0379 -30.75781,0.0661 -12.078231,0.0283 -28.00284,0.0205 -35.388022,-0.0172 z M 106.84968,96.42071 V 80.545711 h -6.08541 -6.085419 v 15.874999 15.875 h 6.085419 6.08541 z"
         id="path26" /><path
         style="fill:#c2c2c2;fill-opacity:1"
         d="m 70.006456,210.25526 -13.427604,-0.0686 v -43.25695 -43.25695 h 10.842549 10.842548 l 0.07151,-5.4901 0.07151,-5.49011 7.739062,-0.0701 7.739062,-0.0701 V 96.152131 79.751961 h 7.011457 7.01146 v 16.404166 16.404163 h 7.67291 7.67292 v 5.55625 5.55625 h 10.84792 10.84791 v 43.25938 43.25937 l -8.79739,0.0148 c -4.83857,0.008 -18.67959,0.0379 -30.75781,0.0661 -12.078231,0.0283 -28.00284,0.0205 -35.388022,-0.0172 z M 106.84968,96.553002 V 80.545711 h -6.08541 -6.085419 v 15.830902 c 0,8.706997 0.07937,15.910277 0.176389,16.007287 0.09701,0.097 2.835451,0.17639 6.08542,0.17639 h 5.90902 z"
         id="path25" /><path
         style="fill:#bcbcbc;fill-opacity:1"
         d="m 70.006456,210.25526 -13.427604,-0.0686 v -43.25695 -43.25695 h 10.842549 10.842548 l 0.07151,-5.4901 0.07151,-5.49011 7.739062,-0.0701 7.739062,-0.0701 V 96.152131 79.751961 h 7.011457 7.01146 v 16.404166 16.404163 h 7.67291 7.67292 v 5.55625 5.55625 h 10.84792 10.84791 v 43.25938 43.25937 l -8.79739,0.0148 c -4.83857,0.008 -18.67959,0.0379 -30.75781,0.0661 -12.078231,0.0283 -28.00284,0.0205 -35.388022,-0.0172 z m 52.189064,-91.74184 v -4.89479 H 100.76427 79.333018 v 4.89479 4.89479 h 21.431252 21.43125 z M 106.84968,96.553002 V 80.545711 h -6.08541 -6.085419 v 16.007291 16.007288 h 6.085419 6.08541 z"
         id="path24" /><path
         style="fill:#b6b6b6;fill-opacity:1"
         d="m 70.006456,210.25526 -13.427604,-0.0686 v -43.25695 -43.25695 h 10.842549 10.842548 l 0.07151,-5.4901 0.07151,-5.49011 7.739062,-0.0701 7.739062,-0.0701 V 96.152131 79.751961 h 7.011457 7.01146 v 16.404166 16.404163 h 7.67291 7.67292 v 5.55625 5.55625 h 10.84792 10.84791 v 43.25938 43.25937 l -8.79739,0.0148 c -4.83857,0.008 -18.67959,0.0379 -30.75781,0.0661 -12.078231,0.0283 -28.00284,0.0205 -35.388022,-0.0172 z m 52.189064,-91.74184 v -4.89479 H 100.76427 79.333018 v 4.89479 4.89479 h 21.431252 21.43125 z M 106.84968,96.553002 V 80.545711 h -6.08541 -6.085419 v 16.007291 16.007288 h 6.085419 6.08541 z"
         id="path23" /><path
         style="fill:#b0b0b0;fill-opacity:1"
         d="m 70.006456,210.25526 -13.427604,-0.0686 v -43.25695 -43.25695 h 10.842549 10.842548 l 0.07151,-5.4901 0.07151,-5.49011 7.739062,-0.0701 7.739062,-0.0701 V 96.152131 79.751961 h 7.011457 7.01146 v 16.404166 16.404163 h 7.67291 7.67292 v 5.55625 5.55625 h 10.84792 10.84791 v 43.25938 43.25937 l -8.79739,0.0103 c -4.83857,0.006 -18.67959,0.0354 -30.75781,0.0661 -12.078231,0.0307 -28.00284,0.025 -35.388022,-0.0127 z m 52.189064,-91.74184 v -4.89479 H 100.76427 79.333018 v 4.89479 4.89479 h 21.431252 21.43125 z M 106.84968,96.42071 V 80.281127 h -6.08541 -6.085419 v 16.139583 16.13958 h 6.085419 6.08541 z"
         id="path22" /><path
         style="fill:#aaaaaa;fill-opacity:1"
         d="m 70.006456,210.25526 -13.427604,-0.0686 v -43.25695 -43.25695 h 10.842549 10.842548 l 0.07151,-5.4901 0.07151,-5.49011 7.739062,-0.0701 7.739062,-0.0701 V 96.152131 79.751961 h 7.011457 7.01146 v 16.404166 16.404163 h 7.67291 7.67292 v 5.55625 5.55625 h 10.84792 10.84791 v 43.25938 43.25937 l -13.29531,0.0166 c -7.31242,0.009 -21.15344,0.0389 -30.75781,0.0661 -9.604374,0.0273 -23.50492,0.0187 -30.890102,-0.019 z m 52.189064,-91.74184 v -4.89479 H 100.76427 79.333018 v 4.89479 4.89479 h 21.431252 21.43125 z M 106.84968,96.42071 V 80.281127 h -6.08541 -6.085419 v 16.139583 16.13958 h 6.085419 6.08541 z"
         id="path21" /><path
         style="fill:#a4a4a4;fill-opacity:1"
         d="m 70.271039,210.25531 -13.692187,-0.0685 v -43.25699 -43.257 h 10.842549 10.842548 l 0.07151,-5.4901 0.07151,-5.49011 7.739062,-0.0701 7.739062,-0.0701 V 96.152131 79.751961 h 7.011457 7.01146 v 16.404166 16.404163 h 7.67291 7.67292 v 5.55625 5.55625 h 10.84792 10.84791 v 43.25938 43.25937 h -30.14086 c -16.577467,0 -30.29942,0.0298 -30.493223,0.0661 -0.193803,0.0364 -6.513853,0.0353 -14.044556,-0.002 z M 122.4601,118.51342 v -4.89479 H 100.89656 79.333018 v 4.89479 4.89479 H 100.89656 122.4601 Z M 106.84968,96.42071 V 80.281127 h -6.08541 -6.085419 v 16.139583 16.13958 h 6.085419 6.08541 z"
         id="path20" /><path
         style="fill:#9e9e9e;fill-opacity:1"
         d="m 70.403331,210.25533 -13.824479,-0.0685 V 166.92982 123.6728 h 10.842549 10.842548 l 0.07151,-5.4901 0.07151,-5.49011 7.739062,-0.0701 7.739062,-0.0701 V 96.152131 79.751961 h 7.011457 7.01146 v 16.404166 16.404163 h 7.67291 7.67292 v 5.55625 5.55625 h 10.84792 10.84791 v 43.25717 43.25716 l -30.36093,0.0684 c -16.698517,0.0376 -36.581954,0.0375 -44.185417,-1.5e-4 z M 122.4601,118.51342 v -4.89479 H 100.89656 79.333018 v 4.89479 4.89479 H 100.89656 122.4601 Z M 106.98198,96.42071 V 80.413419 l -6.15157,-0.07102 -6.151559,-0.07102 v 16.149335 16.149336 l 6.151559,-0.071 6.15157,-0.071 z"
         id="path19" /><path
         style="fill:#989898;fill-opacity:1"
         d="m 70.403331,210.25533 -13.824479,-0.0685 v -43.25408 -43.25408 l 10.914062,-0.0691 10.914063,-0.0691 0.07151,-5.4901 0.07151,-5.49011 h 7.667549 7.667548 V 96.156127 79.751961 h 7.011456 7.01146 v 16.404166 16.404163 h 7.67291 7.67292 v 5.55625 5.55625 h 10.84792 10.84791 v 43.25717 43.25716 l -30.36093,0.0684 c -16.698516,0.0376 -36.581953,0.0375 -44.185416,-1.5e-4 z M 122.4601,118.51342 v -4.89479 H 100.89656 79.333018 v 4.89479 4.89479 H 100.89656 122.4601 Z M 106.98198,96.42071 V 80.413419 l -6.15157,-0.07102 -6.151559,-0.07102 v 16.149335 16.149336 l 6.151559,-0.071 6.15157,-0.071 z"
         id="path18" /><path
         style="fill:#929292;fill-opacity:1"
         d="m 70.403331,210.25533 -13.824479,-0.0685 v -43.25408 -43.25408 l 10.914062,-0.0691 10.914063,-0.0691 0.07151,-5.4901 0.07151,-5.49011 h 7.667549 7.667548 V 96.156127 79.751961 h 7.011456 7.01146 v 16.404166 16.404163 h 7.67291 7.67292 v 5.55625 5.55625 h 10.84792 10.84791 v 43.25717 43.25716 l -30.36093,0.0684 c -16.698516,0.0376 -36.581953,0.0375 -44.185416,-1.5e-4 z m 74.017189,-83.9367 v -1.5875 H 100.89656 57.372602 v 1.5875 1.5875 h 43.523958 43.52396 z m -21.96042,-7.80521 v -4.89479 H 100.89656 79.333018 v 4.89479 4.89479 h 21.563542 21.56354 z m -15.40993,-22.026564 -0.0682,-16.073437 -6.15157,-0.07102 -6.151559,-0.07102 v 16.144459 16.144452 h 6.219759 6.21976 z"
         id="path17" /><path
         style="fill:#8c8c8c;fill-opacity:1"
         d="m 56.578852,166.9351 v -43.25644 l 10.914062,-0.0691 10.914063,-0.0691 0.07161,-5.35376 0.07161,-5.35377 7.601305,-0.0702 7.601305,-0.0702 0.06815,-16.470307 0.06815,-16.470312 h 7.009453 7.00946 v 16.536458 16.536461 h 7.67291 7.67292 v 5.42395 5.42396 h 10.84792 10.84791 v 43.25938 43.25937 H 100.76427 56.578852 Z m 87.841668,-40.61647 v -1.5875 H 100.89656 57.372602 v 1.5875 1.5875 h 43.523958 43.52396 z m -21.96042,-7.80521 v -4.89479 H 100.89656 79.333018 v 4.89479 4.89479 h 21.563542 21.56354 z m -15.40993,-22.026564 -0.0682,-16.073437 -6.15157,-0.07102 -6.151559,-0.07102 v 16.144459 16.144452 h 6.219759 6.21976 z"
         id="path16" /><path
         style="fill:#868686;fill-opacity:1"
         d="m 56.578852,166.9351 v -43.25644 l 10.914062,-0.0691 10.914063,-0.0691 0.07161,-5.35376 0.07161,-5.35377 7.601305,-0.0702 7.601305,-0.0702 0.06815,-16.470307 0.06815,-16.470312 h 7.009453 7.00946 v 16.536458 16.536461 h 7.67291 7.67292 v 5.42395 5.42396 h 10.84792 10.84791 v 43.25938 43.25937 H 100.76427 56.578852 Z m 87.841668,-40.74877 v -1.71979 H 100.89656 57.372602 v 1.71979 1.7198 h 43.523958 43.52396 z m -22.02073,-7.73906 -0.072,-4.96094 -21.4974,-0.0231 -21.497392,-0.0231 v 4.98403 4.98402 H 100.9024 122.47178 Z M 107.11427,96.42071 V 80.281127 h -6.21771 -6.217709 v 16.139583 16.13958 h 6.217709 6.21771 z"
         id="path15" /><path
         style="fill:#808080;fill-opacity:1"
         d="m 56.578852,166.9351 v -43.25644 l 10.914062,-0.0691 10.914063,-0.0691 0.07161,-5.35376 0.07161,-5.35377 7.601305,-0.0702 7.601305,-0.0702 0.06815,-16.470307 0.06815,-16.470312 h 7.009453 7.00946 v 16.536458 16.536461 h 7.67291 7.67292 v 5.42395 5.42396 h 10.84792 10.84791 v 43.25938 43.25937 H 100.76427 56.578852 Z m 21.277318,42.30209 c 0.361196,-0.1386 0.418515,-0.84522 0.418515,-5.15937 v -4.99878 H 75.49656 72.718435 v 5.00504 c 0,3.75646 0.0825,5.03832 0.330729,5.13848 0.477865,0.19283 4.312232,0.20449 4.807006,0.0146 z m 7.14375,0 c 0.361196,-0.1386 0.418515,-0.84522 0.418515,-5.15937 v -4.99878 H 82.64031 79.862185 v 5.00504 c 0,3.75646 0.0825,5.03832 0.330729,5.13848 0.477865,0.19283 4.312232,0.20449 4.807006,0.0146 z m 7.14375,0 c 0.361196,-0.1386 0.418514,-0.84522 0.418514,-5.15937 v -4.99878 H 89.78406 87.005935 v 5.00504 c 0,3.75646 0.0825,5.03832 0.330729,5.13848 0.477864,0.19283 4.312232,0.20449 4.807006,0.0146 z m 7.14375,0 c 0.361195,-0.1386 0.418514,-0.84522 0.418514,-5.15937 v -4.99878 h -2.778125 -2.778125 v 5.00504 c 0,3.75646 0.08251,5.03832 0.33073,5.13848 0.477864,0.19283 4.312232,0.20449 4.807006,0.0146 z m 7.14375,0 c 0.3612,-0.1386 0.41851,-0.84522 0.41851,-5.15937 v -4.99878 h -2.77812 -2.77813 v 5.00504 c 0,3.75646 0.0825,5.03832 0.33073,5.13848 0.47787,0.19283 4.31224,0.20449 4.80701,0.0146 z m 7.14375,0 c 0.36119,-0.1386 0.41851,-0.84522 0.41851,-5.15937 v -4.99878 h -2.77812 -2.77813 v 5.00504 c 0,3.75646 0.0825,5.03832 0.33073,5.13848 0.47787,0.19283 4.31224,0.20449 4.80701,0.0146 z m 7.14375,0 c 0.36119,-0.1386 0.41851,-0.84522 0.41851,-5.15937 v -4.99878 h -2.77812 -2.77813 v 5.00504 c 0,3.75646 0.0825,5.03832 0.33073,5.13848 0.47787,0.19283 4.31224,0.20449 4.80701,0.0146 z m 7.14375,0 c 0.36119,-0.1386 0.41851,-0.84522 0.41851,-5.15937 v -4.99878 h -2.77812 -2.77813 v 5.00504 c 0,3.75646 0.0825,5.03832 0.33073,5.13848 0.47787,0.19283 4.31223,0.20449 4.80701,0.0146 z m 16.5581,-82.91856 v -1.85209 H 100.89656 57.372602 v 1.85209 1.85208 h 43.523958 43.52396 z m -22.02073,-7.87136 -0.072,-4.96094 -21.4974,-0.0231 -21.497392,-0.0231 v 4.98403 4.98402 H 100.9024 122.47178 Z M 107.11427,96.42071 V 80.281127 h -6.21771 -6.217709 v 16.139583 16.13958 h 6.217709 6.21771 z"
         id="path14" /><path
         style="fill:#7a7a7a;fill-opacity:1"
         d="M 56.578852,166.93217 V 123.67279 H 67.55906 78.539268 v -5.4199 -5.4199 l 7.606771,-0.0702 7.60677,-0.0702 0.06815,-16.470307 0.06815,-16.470312 h 7.009451 7.00946 v 16.536458 16.536461 h 7.67291 7.67292 v 5.42395 5.42396 h 10.84792 10.84791 v 43.25938 43.25937 H 100.76427 56.578852 Z m 21.365104,42.29886 c 0.590711,-0.15831 0.595312,-0.19815 0.595312,-5.15576 v -4.99623 h -2.910416 -2.910417 v 5.00504 c 0,3.75646 0.0825,5.03832 0.330729,5.13848 0.474266,0.19137 4.188316,0.1978 4.894792,0.008 z m 7.14375,0 c 0.590711,-0.15831 0.595312,-0.19815 0.595312,-5.15576 v -4.99623 h -2.910417 -2.910416 v 5.00504 c 0,3.75646 0.0825,5.03832 0.330729,5.13848 0.474265,0.19137 4.188315,0.1978 4.894792,0.008 z m 7.143749,0 c 0.590712,-0.15831 0.595313,-0.19815 0.595313,-5.15576 v -4.99623 h -2.910417 -2.910416 v 5.00504 c 0,3.75646 0.0825,5.03832 0.330729,5.13848 0.474265,0.19137 4.188315,0.1978 4.894791,0.008 z m 7.14375,0 c 0.590712,-0.15831 0.595313,-0.19815 0.595313,-5.15576 v -4.99623 h -2.910417 -2.910417 v 5.00504 c 0,3.75646 0.08251,5.03832 0.33073,5.13848 0.474265,0.19137 4.188315,0.1978 4.894791,0.008 z m 7.143745,0 c 0.59072,-0.15831 0.59532,-0.19815 0.59532,-5.15576 v -4.99623 h -2.91042 -2.91042 v 5.00504 c 0,3.75646 0.0825,5.03832 0.33073,5.13848 0.47427,0.19137 4.18832,0.1978 4.89479,0.008 z m 7.14375,0 c 0.59072,-0.15831 0.59532,-0.19815 0.59532,-5.15576 v -4.99623 h -2.91042 -2.91042 v 5.00504 c 0,3.75646 0.0825,5.03832 0.33073,5.13848 0.47427,0.19137 4.18832,0.1978 4.89479,0.008 z m 7.14375,0 c 0.59072,-0.15831 0.59532,-0.19815 0.59532,-5.15576 v -4.99623 h -2.91042 -2.91042 v 5.00504 c 0,3.75646 0.0825,5.03832 0.33073,5.13848 0.47427,0.19137 4.18832,0.1978 4.89479,0.008 z m 7.14375,0 c 0.59072,-0.15831 0.59532,-0.19815 0.59532,-5.15576 v -4.99623 h -2.91042 -2.91042 v 5.00504 c 0,3.75646 0.0825,5.03832 0.33073,5.13848 0.47427,0.19137 4.18832,0.1978 4.89479,0.008 z m 16.47032,-82.9124 v -1.85209 H 100.89656 57.372602 v 1.85209 1.85208 h 43.523958 43.52396 z m -22.09271,-7.80521 v -5.02709 l -21.4974,-0.0247 -21.497392,-0.0247 v 5.11946 5.11946 l 21.497392,-0.0677 21.4974,-0.0677 z M 107.11427,96.42071 V 80.281127 h -6.21771 -6.217709 v 16.139583 16.13958 h 6.217709 6.21771 z"
         id="path13" /><path
         style="fill:#747474;fill-opacity:1"
         d="M 56.578852,166.93217 V 123.67279 H 67.55906 78.539268 v -5.4199 -5.4199 l 7.606771,-0.0702 7.60677,-0.0702 0.06815,-16.470307 0.06815,-16.470312 h 6.877161 6.87716 v 16.117943 c 0,8.864866 0.0723,16.306276 0.1606,16.536456 0.14132,0.36827 1.0784,0.41852 7.80521,0.41852 h 7.64461 v 5.42395 5.42396 h 10.84792 10.84791 v 43.25938 43.25937 H 100.76427 56.578852 Z m 21.899983,37.2401 0.07186,-5.09323 h -2.916129 -2.91613 v 5.16833 5.16832 l 2.844271,-0.0751 2.844271,-0.0751 z m 7.14375,0 0.07186,-5.09323 h -2.916129 -2.91613 v 5.16833 5.16832 l 2.844271,-0.0751 2.84427,-0.0751 z m 7.14375,0 0.07186,-5.09323 h -2.91613 -2.916129 v 5.16833 5.16832 l 2.84427,-0.0751 2.844271,-0.0751 z m 7.14375,0 0.07186,-5.09323 h -2.91613 -2.91613 v 5.16833 5.16832 l 2.844271,-0.0751 2.844271,-0.0751 z m 7.143745,0 0.0719,-5.09323 h -2.91613 -2.91613 v 5.16833 5.16832 l 2.84427,-0.0751 2.84428,-0.0751 z m 7.14375,0 0.0719,-5.09323 h -2.91613 -2.91613 v 5.16833 5.16832 l 2.84427,-0.0751 2.84428,-0.0751 z m 7.14375,0 0.0719,-5.09323 h -2.91613 -2.91613 v 5.16833 5.16832 l 2.84427,-0.0751 2.84428,-0.0751 z m 7.14375,0 0.0719,-5.09323 h -2.91613 -2.91613 v 5.16833 5.16832 l 2.84427,-0.0751 2.84427,-0.0751 z m 15.93544,-77.85443 v -1.85287 l -43.59011,0.0669 -43.590099,0.0669 -0.08117,1.42367 c -0.04465,0.78302 -0.01862,1.5867 0.05784,1.78594 0.116888,0.30461 7.06831,0.36227 43.671279,0.36227 h 43.53226 z m -22.09271,-7.80442 v -5.02709 l -21.4974,-0.0247 -21.497392,-0.0247 v 5.11946 5.11946 l 21.497392,-0.0677 21.4974,-0.0677 z M 107.11427,96.42071 V 80.281127 h -6.21771 -6.217709 v 16.139583 16.13958 h 6.217709 6.21771 z"
         id="path12" /><path
         style="fill:#6e6e6e;fill-opacity:1"
         d="M 56.578852,166.93217 V 123.67279 H 67.55906 78.539268 v -5.4199 -5.4199 l 7.606771,-0.0702 7.60677,-0.0702 0.06815,-16.470307 0.06815,-16.470312 h 6.875161 6.87516 l 0.0681,16.470312 0.0682,16.470307 7.73906,0.0701 7.73906,0.0701 v 5.41996 5.41996 h 10.84792 10.84791 v 43.25938 43.25937 H 100.76427 56.578852 Z m 21.960416,37.30625 v -5.15938 h -2.910416 -2.910417 v 5.15938 5.15937 h 2.910417 2.910416 z m 7.14375,0 v -5.15938 h -2.910417 -2.910416 v 5.15938 5.15937 h 2.910416 2.910417 z m 7.14375,0 v -5.15938 h -2.910417 -2.910416 v 5.15938 5.15937 h 2.910416 2.910417 z m 7.14375,0 v -5.15938 h -2.910417 -2.910417 v 5.15938 5.15937 h 2.910417 2.910417 z m 7.143752,0 v -5.15938 h -2.91042 -2.91042 v 5.15938 5.15937 h 2.91042 2.91042 z m 7.14375,0 v -5.15938 h -2.91042 -2.91042 v 5.15938 5.15937 h 2.91042 2.91042 z m 7.14375,0 v -5.15938 h -2.91042 -2.91042 v 5.15938 5.15937 h 2.91042 2.91042 z m 7.14375,0 v -5.15938 h -2.91042 -2.91042 v 5.15938 5.15937 h 2.91042 2.91042 z m 15.875,-77.92058 v -1.85287 l -43.59011,0.0669 -43.590099,0.0669 -0.08117,1.42367 c -0.04465,0.78302 -0.01862,1.5867 0.05784,1.78594 0.116888,0.30461 7.06831,0.36227 43.671279,0.36227 h 43.53226 z m -22.02099,-7.83014 0.0717,-5.0528 -21.63526,0.0257 -21.635253,0.0257 -0.07248,4.75361 c -0.03987,2.61448 -0.01357,4.90714 0.05844,5.09479 0.105688,0.27542 4.27598,0.32813 21.636033,0.27347 l 21.50509,-0.0677 z M 107.11427,96.42071 V 80.281127 h -6.21771 -6.217709 v 16.139583 16.13958 h 6.217709 6.21771 z"
         id="path11" /><path
         style="fill:#686868;fill-opacity:1"
         d="M 56.578852,166.93217 V 123.67279 H 67.55906 78.539268 v -5.4199 -5.4199 l 7.606771,-0.0702 7.60677,-0.0702 0.06815,-16.470307 0.06815,-16.470312 h 6.875161 6.87516 l 0.0681,16.470312 0.0682,16.470307 7.73906,0.0701 7.73906,0.0701 v 5.41996 5.41996 h 10.84792 10.84791 v 43.25938 43.25937 H 100.76427 56.578852 Z m 21.960416,37.30625 v -5.15938 h -2.910416 -2.910417 v 5.15938 5.15937 h 2.910417 2.910416 z m 7.14375,0 v -5.15938 h -2.910417 -2.910416 v 5.15938 5.15937 h 2.910416 2.910417 z m 7.14375,0 v -5.15938 h -2.910417 -2.910416 v 5.15938 5.15937 h 2.910416 2.910417 z m 7.14375,0 v -5.15938 h -2.910417 -2.910417 v 5.15938 5.15937 h 2.910417 2.910417 z m 7.143752,0 v -5.15938 h -2.91042 -2.91042 v 5.15938 5.15937 h 2.91042 2.91042 z m 7.14375,0 v -5.15938 h -2.91042 -2.91042 v 5.15938 5.15937 h 2.91042 2.91042 z m 7.14375,0 v -5.15938 h -2.91042 -2.91042 v 5.15938 5.15937 h 2.91042 2.91042 z m 7.14375,0 v -5.15938 h -2.91042 -2.91042 v 5.15938 5.15937 h 2.91042 2.91042 z m 15.875,-77.91979 v -1.85209 H 100.76427 57.108019 v 1.6757 c 0,0.92163 0.07937,1.75507 0.176389,1.85208 0.09701,0.097 19.742326,0.17639 43.656252,0.17639 h 43.47986 z M 122.4601,118.5538 v -5.119 l -21.62969,0.0258 -21.629683,0.0258 -0.07248,4.75361 c -0.03987,2.61448 -0.01384,4.90644 0.05784,5.09323 0.104607,0.2726 4.387452,0.33962 21.702173,0.33962 H 122.4601 Z M 107.11427,96.42071 V 80.281127 h -6.21771 -6.217709 v 16.139583 16.13958 h 6.217709 6.21771 z"
         id="path10" /><path
         style="fill:#626262;fill-opacity:1"
         d="M 56.578852,166.93217 V 123.67279 H 67.55906 78.539268 v -5.4199 -5.4199 l 7.606771,-0.0702 7.60677,-0.0702 0.06815,-16.470307 0.06815,-16.470312 h 6.875161 6.87516 l 0.0681,16.470312 0.0682,16.470307 7.73906,0.0701 7.73906,0.0701 v 5.41996 5.41996 h 10.84792 10.84791 v 43.25938 43.25937 H 100.76427 56.578852 Z m 21.960416,37.30625 v -5.15938 h -2.910416 -2.910417 v 5.15938 5.15937 h 2.910417 2.910416 z m 7.14375,0 v -5.15938 h -2.910417 -2.910416 v 5.15938 5.15937 h 2.910416 2.910417 z m 7.14375,0 v -5.15938 h -2.910417 -2.910416 v 5.15938 5.15937 h 2.910416 2.910417 z m 7.14375,0 v -5.15938 h -2.910417 -2.910417 v 5.15938 5.15937 h 2.910417 2.910417 z m 7.143752,0 v -5.15938 h -2.91042 -2.91042 v 5.15938 5.15937 h 2.91042 2.91042 z m 7.14375,0 v -5.15938 h -2.91042 -2.91042 v 5.15938 5.15937 h 2.91042 2.91042 z m 7.14375,0 v -5.15938 h -2.91042 -2.91042 v 5.15938 5.15937 h 2.91042 2.91042 z m 7.14375,0 v -5.15938 h -2.91042 -2.91042 v 5.15938 5.15937 h 2.91042 2.91042 z m 15.875,-77.91979 v -1.85209 H 100.76427 57.108019 v 1.85209 1.85208 h 43.656251 43.65625 z m -21.96042,-7.80676 v -5.16092 l -21.62969,0.0677 -21.629683,0.0677 -0.07248,4.75361 c -0.03987,2.61448 -0.01384,4.90644 0.05784,5.09323 0.104607,0.2726 4.387452,0.33962 21.702173,0.33962 H 122.4601 Z M 107.11427,96.42071 V 80.281127 h -6.21771 -6.217709 v 16.139583 16.13958 h 6.217709 6.21771 z"
         id="path9" /><path
         style="fill:#5d5d5d;fill-opacity:1"
         d="M 56.578852,166.93217 V 123.67279 H 67.55906 78.539268 v -5.4199 -5.4199 l 7.606771,-0.0702 7.60677,-0.0702 0.06815,-16.470307 0.06815,-16.470312 h 6.875161 6.87516 l 0.0681,16.470312 0.0682,16.470307 7.73906,0.0701 7.73906,0.0701 v 5.41996 5.41996 h 10.84792 10.84791 v 43.25938 43.25937 H 100.76427 56.578852 Z m 21.960416,37.30625 v -5.15938 h -2.910416 -2.910417 v 5.15938 5.15937 h 2.910417 2.910416 z m 7.14375,0 v -5.15938 h -2.910417 -2.910416 v 5.15938 5.15937 h 2.910416 2.910417 z m 7.14375,0 v -5.15938 h -2.910417 -2.910416 v 5.15938 5.15937 h 2.910416 2.910417 z m 7.14375,0 v -5.15938 h -2.910417 -2.910417 v 5.15938 5.15937 h 2.910417 2.910417 z m 7.143752,0 v -5.15938 h -2.91042 -2.91042 v 5.15938 5.15937 h 2.91042 2.91042 z m 7.14375,0 v -5.15938 h -2.91042 -2.91042 v 5.15938 5.15937 h 2.91042 2.91042 z m 7.14375,0 v -5.15938 h -2.91042 -2.91042 v 5.15938 5.15937 h 2.91042 2.91042 z m 7.14375,0 v -5.15938 h -2.91042 -2.91042 v 5.15938 5.15937 h 2.91042 2.91042 z m 15.875,-77.91979 v -1.85209 H 100.76427 57.108019 v 1.85209 1.85208 h 43.656251 43.65625 z m -21.96042,-7.80676 v -5.16092 l -21.62969,0.0677 -21.629683,0.0677 -0.07248,4.75361 c -0.03987,2.61448 -0.01384,4.90644 0.05784,5.09323 0.104607,0.2726 4.387452,0.33962 21.702173,0.33962 H 122.4601 Z M 107.11427,96.42071 V 80.281127 h -6.21771 -6.217709 v 16.139583 16.13958 h 6.217709 6.21771 z"
         id="path8" /><path
         style="fill:#575757;fill-opacity:1"
         d="M 56.578852,166.93217 V 123.67279 H 67.55906 78.539268 v -5.42396 -5.42395 h 7.672917 7.672916 V 96.288419 79.751961 h 6.877159 6.87717 l 0.0681,16.470312 0.0682,16.470307 7.73906,0.0701 7.73906,0.0701 v 5.41996 5.41996 h 10.84792 10.84791 v 43.25938 43.25937 H 100.76427 56.578852 Z m 21.960416,37.30625 v -5.15938 h -2.910416 -2.910417 v 5.15938 5.15937 h 2.910417 2.910416 z m 7.14375,0 v -5.15938 h -2.910417 -2.910416 v 5.15938 5.15937 h 2.910416 2.910417 z m 7.14375,0 v -5.15938 h -2.910417 -2.910416 v 5.15938 5.15937 h 2.910416 2.910417 z m 7.14375,0 v -5.15938 h -2.910417 -2.910417 v 5.15938 5.15937 h 2.910417 2.910417 z m 7.143752,0 v -5.15938 h -2.91042 -2.91042 v 5.15938 5.15937 h 2.91042 2.91042 z m 7.14375,0 v -5.15938 h -2.91042 -2.91042 v 5.15938 5.15937 h 2.91042 2.91042 z m 7.14375,0 v -5.15938 h -2.91042 -2.91042 v 5.15938 5.15937 h 2.91042 2.91042 z m 7.14375,0 v -5.15938 h -2.91042 -2.91042 v 5.15938 5.15937 h 2.91042 2.91042 z m 15.875,-77.91979 v -1.85209 H 100.76427 57.108019 v 1.85209 1.85208 h 43.656251 43.65625 z m -21.96042,-7.80676 v -5.16092 l -21.62969,0.0677 -21.629683,0.0677 -0.07248,4.75361 c -0.03987,2.61448 -0.01384,4.90644 0.05784,5.09323 0.104607,0.2726 4.387452,0.33962 21.702173,0.33962 H 122.4601 Z M 107.11427,96.42071 V 80.281127 h -6.21771 -6.217709 v 16.139583 16.13958 h 6.217709 6.21771 z"
         id="path7" /><path
         style="fill:#515151;fill-opacity:1"
         d="M 56.578852,166.93217 V 123.67279 H 67.55906 78.539268 v -5.42396 -5.42395 h 7.672917 7.672916 V 96.288419 79.751961 h 6.877159 6.87717 l 0.0681,16.470312 0.0682,16.470307 7.73906,0.0701 7.73906,0.0701 v 5.41996 5.41996 h 10.84792 10.84791 v 43.25938 43.25937 H 100.76427 56.578852 Z m 21.960416,37.30625 v -5.15938 h -2.910416 -2.910417 v 5.15938 5.15937 h 2.910417 2.910416 z m 7.14375,0 v -5.15938 h -2.910417 -2.910416 v 5.15938 5.15937 h 2.910416 2.910417 z m 7.14375,0 v -5.15938 h -2.910417 -2.910416 v 5.15938 5.15937 h 2.910416 2.910417 z m 7.14375,0 v -5.15938 h -2.910417 -2.910417 v 5.15938 5.15937 h 2.910417 2.910417 z m 7.143752,0 v -5.15938 h -2.91042 -2.91042 v 5.15938 5.15937 h 2.91042 2.91042 z m 7.14375,0 v -5.15938 h -2.91042 -2.91042 v 5.15938 5.15937 h 2.91042 2.91042 z m 7.14375,0 v -5.15938 h -2.91042 -2.91042 v 5.15938 5.15937 h 2.91042 2.91042 z m 7.14375,0 v -5.15938 h -2.91042 -2.91042 v 5.15938 5.15937 h 2.91042 2.91042 z m 15.875,-77.91979 v -1.85209 H 100.76427 57.108019 v 1.85209 1.85208 h 43.656251 43.65625 z m -21.96042,-7.80676 v -5.16092 l -21.62969,0.0677 -21.629683,0.0677 -0.07248,4.75361 c -0.03987,2.61448 -0.01384,4.90644 0.05784,5.09323 0.104607,0.2726 4.387452,0.33962 21.702173,0.33962 H 122.4601 Z M 107.11427,96.42071 V 80.281127 h -6.21771 -6.217709 v 16.139583 16.13958 h 6.217709 6.21771 z"
         id="path6" /><path
         style="fill:#4b4b4b;fill-opacity:1"
         d="M 56.578852,166.93217 V 123.67279 H 67.55906 78.539268 v -5.42396 -5.42395 h 7.672917 7.672916 V 96.288419 79.751961 h 6.877159 6.87717 l 0.0681,16.470312 0.0682,16.470307 7.73906,0.0701 7.73906,0.0701 v 5.41996 5.41996 h 10.84792 10.84791 v 43.25938 43.25937 H 100.76427 56.578852 Z m 21.960416,37.30625 v -5.15938 h -2.910416 -2.910417 v 5.15938 5.15937 h 2.910417 2.910416 z m 7.14375,0 v -5.15938 h -2.910417 -2.910416 v 5.15938 5.15937 h 2.910416 2.910417 z m 7.14375,0 v -5.15938 h -2.910417 -2.910416 v 5.15938 5.15937 h 2.910416 2.910417 z m 7.14375,0 v -5.15938 h -2.910417 -2.910417 v 5.15938 5.15937 h 2.910417 2.910417 z m 7.143752,0 v -5.15938 h -2.91042 -2.91042 v 5.15938 5.15937 h 2.91042 2.91042 z m 7.14375,0 v -5.15938 h -2.91042 -2.91042 v 5.15938 5.15937 h 2.91042 2.91042 z m 7.14375,0 v -5.15938 h -2.91042 -2.91042 v 5.15938 5.15937 h 2.91042 2.91042 z m 7.14375,0 v -5.15938 h -2.91042 -2.91042 v 5.15938 5.15937 h 2.91042 2.91042 z m 15.875,-77.91979 v -1.85209 H 100.76427 57.108019 v 1.85209 1.85208 h 43.656251 43.65625 z m -21.96042,-7.80676 v -5.16092 l -21.62969,0.0677 -21.629683,0.0677 -0.07248,4.75361 c -0.03987,2.61448 -0.01384,4.90644 0.05784,5.09323 0.104607,0.2726 4.387452,0.33962 21.702173,0.33962 H 122.4601 Z M 107.11427,96.42071 V 80.281127 h -6.21771 -6.217709 v 16.139583 16.13958 h 6.217709 6.21771 z"
         id="path5" /><path
         style="fill:#454545;fill-opacity:1"
         d="M 56.578852,166.93217 V 123.67279 H 67.55906 78.539268 v -5.42396 -5.42395 h 7.672917 7.672916 V 96.288419 79.751961 h 6.877159 6.87717 l 0.0681,16.470312 0.0682,16.470307 7.73906,0.0701 7.73906,0.0701 v 5.41996 5.41996 h 10.84792 10.84791 v 43.25938 43.25937 H 100.76427 56.578852 Z m 22.164567,37.2401 0.07186,-5.09323 h -3.048422 -3.048421 v 5.16804 5.16804 l 2.976562,-0.0748 2.976563,-0.0748 z m 7.14375,0 0.07186,-5.09323 h -3.048422 -3.048421 v 5.16804 5.16804 l 2.976562,-0.0748 2.976563,-0.0748 z m 7.143749,0 0.07186,-5.09323 h -3.048421 -3.048421 v 5.16804 5.16804 l 2.976562,-0.0748 2.976562,-0.0748 z m 7.143752,0 0.0719,-5.09323 h -3.048424 -3.048422 v 5.16804 5.16804 l 2.976563,-0.0748 2.976563,-0.0748 z m 7.14375,0 0.0719,-5.09323 h -3.04842 -3.04843 v 5.16804 5.16804 l 2.97657,-0.0748 2.97656,-0.0748 z m 7.14375,0 0.0719,-5.09323 h -3.04842 -3.04843 v 5.16804 5.16804 l 2.97657,-0.0748 2.97656,-0.0748 z m 7.14375,0 0.0719,-5.09323 h -3.04843 -3.04842 v 5.16804 5.16804 l 2.97657,-0.0748 2.97656,-0.0748 z m 7.14375,0 0.0719,-5.09323 h -3.04843 -3.04842 v 5.16804 5.16804 l 2.97657,-0.0748 2.97656,-0.0748 z m 15.67085,-77.85364 v -1.85209 H 100.76427 57.108019 v 1.85209 1.85208 h 43.656251 43.65625 z m -21.96042,-7.80676 v -5.16092 l -21.62969,0.0677 -21.629683,0.0677 -0.07248,4.75361 c -0.03987,2.61448 -0.01384,4.90644 0.05784,5.09323 0.104607,0.2726 4.387452,0.33962 21.702173,0.33962 h 21.57184 z m -15.40994,-22.025014 0.0682,-16.205729 h -6.21974 -6.219739 v 16.276751 16.276752 l 6.151559,-0.071 6.15157,-0.071 z"
         id="path4" /><path
         style="fill:#3f3f3f;fill-opacity:1"
         d="M 56.578852,166.93217 V 123.67279 H 67.55906 78.539268 v -5.42396 -5.42395 h 7.672917 7.672916 V 96.288419 79.751961 h 6.877159 6.87717 l 0.0681,16.470312 0.0682,16.470307 7.73906,0.0701 7.73906,0.0701 v 5.41996 5.41996 h 10.84792 10.84791 v 43.25938 43.25937 H 100.76427 56.578852 Z m 13.714414,42.55613 1.41129,-0.16948 -0.08837,-5.62452 c -0.04861,-3.09349 -0.01396,-5.50379 0.07699,-5.35623 0.108938,0.17675 0.227119,0.16838 0.346344,-0.0245 0.26355,-0.42643 6.764333,-0.40273 6.764333,0.0247 0,0.24694 0.07055,0.24694 0.3175,0 0.212527,-0.21253 1.393472,-0.3175 3.571874,-0.3175 2.354792,0 3.254375,0.0878 3.254375,0.3175 0,0.24694 0.07056,0.24694 0.3175,0 0.445945,-0.44595 6.82625,-0.44595 6.82625,0 0,0.24694 0.07056,0.24694 0.3175,0 0.212527,-0.21253 1.393472,-0.3175 3.571875,-0.3175 2.354792,0 3.254373,0.0878 3.254373,0.3175 0,0.24694 0.0706,0.24694 0.3175,0 0.21253,-0.21253 1.39347,-0.3175 3.57188,-0.3175 2.35479,0 3.25437,0.0878 3.25437,0.3175 0,0.24694 0.0706,0.24694 0.3175,0 0.44595,-0.44595 6.82625,-0.44595 6.82625,0 0,0.24694 0.0706,0.24694 0.3175,0 0.44595,-0.44595 6.82625,-0.44595 6.82625,0 0,0.24694 0.0706,0.24694 0.3175,0 0.42838,-0.42839 6.82625,-0.44762 6.82625,-0.0205 0,0.20518 0.12267,0.19517 0.39687,-0.0324 0.3507,-0.29105 0.39688,0.33628 0.39688,5.39156 v 5.72094 h 7.40833 7.40834 V 169.31342 129.22904 H 100.89656 57.372602 v 40.0789 40.07889 l 5.357813,0.0774 c 2.946796,0.0426 5.536406,0.10354 5.754687,0.13547 0.218281,0.0319 1.031955,-0.0182 1.808164,-0.11142 z m 8.510586,-5.24988 v -5.15938 h -3.175 -3.175 v 5.15938 5.15937 h 3.175 3.175 z m 7.143749,0 v -5.15938 h -3.175 -3.174999 v 5.15938 5.15937 h 3.174999 3.175 z m 7.14375,0 v -5.15938 h -3.175 -3.175 v 5.15938 5.15937 h 3.175 3.175 z m 7.143749,0 v -5.15938 h -3.174999 -3.175 v 5.15938 5.15937 h 3.175 3.174999 z m 7.14375,0 v -5.15938 h -3.175 -3.175 v 5.15938 5.15937 h 3.175 3.175 z m 7.14375,0 v -5.15938 h -3.175 -3.175 v 5.15938 5.15937 h 3.175 3.175 z m 7.14375,0 v -5.15938 h -3.175 -3.175 v 5.15938 5.15937 h 3.175 3.175 z m 7.14375,0 v -5.15938 h -3.175 -3.175 v 5.15938 5.15937 h 3.175 3.175 z m 15.61042,-77.91979 v -1.85209 H 100.76427 57.108019 v 1.85209 1.85208 h 43.656251 43.65625 z m -21.96042,-7.80521 v -5.15938 H 100.76427 79.068435 v 4.98299 c 0,2.74064 0.07938,5.06236 0.176389,5.15937 0.09701,0.097 9.860138,0.17639 21.695836,0.17639 h 21.51944 z m -15.40994,-22.031357 0.0682,-16.210522 -6.28589,0.07094 -6.285891,0.07094 -0.07311,15.610416 c -0.04021,8.585723 -0.0076,15.880493 0.07241,16.210593 l 0.145513,0.60017 6.145298,-0.071 6.14531,-0.071 z"
         id="path3" /><path
         style="fill:#393939;fill-opacity:1"
         d="M 56.578852,166.93217 V 123.67279 H 67.55906 78.539268 v -5.42396 -5.42395 h 7.672917 7.672916 V 96.288419 79.751961 h 6.877159 6.87717 l 0.0681,16.470312 0.0682,16.470307 7.73906,0.0701 7.73906,0.0701 v 5.41996 5.41996 h 10.84792 10.84791 v 43.25938 43.25937 H 100.76427 56.578852 Z m 14.948958,36.9732 c 0,-3.09359 0.03933,-5.50566 0.08741,-5.36017 0.0486,0.14707 0.26258,0.0894 0.48192,-0.12998 0.571455,-0.57145 6.389341,-0.57536 6.608425,-0.004 0.131895,0.34372 0.19605,0.34372 0.539762,0 0.567401,-0.5674 6.386255,-0.5674 6.603988,0 0.131894,0.34372 0.19605,0.34372 0.539761,0 0.298328,-0.29832 1.103245,-0.39007 3.422189,-0.39007 2.427646,0 3.061954,0.0778 3.1818,0.39007 0.131894,0.34372 0.196049,0.34372 0.539761,0 0.567402,-0.5674 6.386256,-0.5674 6.603984,0 0.1319,0.34372 0.19605,0.34372 0.53976,0 0.5674,-0.5674 6.38626,-0.5674 6.60399,0 0.1319,0.34372 0.19605,0.34372 0.53976,0 0.5674,-0.5674 6.38626,-0.5674 6.60399,0 0.1319,0.34372 0.19605,0.34372 0.53976,0 0.5674,-0.5674 6.38626,-0.5674 6.60399,0 0.1319,0.34372 0.19605,0.34372 0.53976,0 0.62198,-0.62198 6.31252,-0.55984 6.68109,0.073 0.14967,0.25696 0.27326,0.31584 0.27773,0.13229 0.004,-0.1819 0.12711,-0.33073 0.27263,-0.33073 0.16818,0 0.26458,2.07257 0.26458,5.68854 v 5.68854 h 7.40833 7.40834 V 169.44571 129.22904 H 100.89656 57.372602 v 40.22099 40.22099 l 7.077604,-0.0705 7.077604,-0.0705 z m 7.276042,0.33305 v -5.15938 h -3.175 -3.175 v 5.15938 5.15937 h 3.175 3.175 z m 7.143749,0 v -5.15938 h -3.175 -3.174999 v 5.15938 5.15937 h 3.174999 3.175 z m 7.14375,0 v -5.15938 h -3.175 -3.175 v 5.15938 5.15937 h 3.175 3.175 z m 7.143749,0 v -5.15938 h -3.174999 -3.175 v 5.15938 5.15937 h 3.175 3.174999 z m 7.14375,0 v -5.15938 h -3.175 -3.175 v 5.15938 5.15937 h 3.175 3.175 z m 7.14375,0 v -5.15938 h -3.175 -3.175 v 5.15938 5.15937 h 3.175 3.175 z m 7.14375,0 v -5.15938 h -3.175 -3.175 v 5.15938 5.15937 h 3.175 3.175 z m 7.14375,0 v -5.15938 h -3.175 -3.175 v 5.15938 5.15937 h 3.175 3.175 z m 15.74271,-77.91979 v -1.7198 l -43.7224,-0.0669 -43.722391,-0.0669 v 1.85365 1.85365 l 43.722391,-0.0669 43.7224,-0.0669 z m -22.09271,-7.80521 v -5.15938 H 100.76427 79.068435 v 5.15938 5.15937 h 21.695835 21.69583 z m -15.40994,-22.026564 0.0682,-16.205729 h -6.35203 -6.352032 v 16.095486 c 0,8.852517 0.08151,16.176997 0.181145,16.276627 0.09963,0.0996 2.927364,0.14924 6.283857,0.11025 l 6.10271,-0.0709 z"
         id="path2" /><path
         style="fill:#333333;fill-opacity:1"
         d="M 56.578852,166.93217 V 123.67279 H 67.55906 78.539268 v -5.42396 -5.42395 h 7.672917 7.672916 V 96.288419 79.751961 h 6.877159 6.87717 l 0.0681,16.470312 0.0682,16.470307 7.73906,0.0701 7.73906,0.0701 v 5.41996 5.41996 h 10.84792 10.84791 v 43.25938 43.25937 H 100.76427 56.578852 Z m 14.948958,36.99994 c 0,-3.07889 0.07441,-5.47719 0.165365,-5.32956 0.108994,0.17691 0.227057,0.16858 0.346344,-0.0244 0.26355,-0.42643 6.764333,-0.40272 6.764333,0.0247 0,0.24695 0.07055,0.24695 0.3175,0 0.212527,-0.21253 1.393472,-0.3175 3.571874,-0.3175 2.354792,0 3.254375,0.0878 3.254375,0.3175 0,0.24695 0.07056,0.24695 0.3175,0 0.212527,-0.21253 1.393472,-0.3175 3.571875,-0.3175 2.354792,0 3.254375,0.0878 3.254375,0.3175 0,0.24695 0.07056,0.24695 0.3175,0 0.445945,-0.44594 6.826249,-0.44594 6.826249,0 0,0.24695 0.0706,0.24695 0.3175,0 0.21253,-0.21253 1.39347,-0.3175 3.57188,-0.3175 2.35479,0 3.25437,0.0878 3.25437,0.3175 0,0.24695 0.0706,0.24695 0.3175,0 0.21253,-0.21253 1.39347,-0.3175 3.57188,-0.3175 2.35479,0 3.25437,0.0878 3.25437,0.3175 0,0.24695 0.0706,0.24695 0.3175,0 0.21253,-0.21253 1.39347,-0.3175 3.57188,-0.3175 2.35479,0 3.25437,0.0878 3.25437,0.3175 0,0.24695 0.0706,0.24695 0.3175,0 0.42838,-0.42838 6.82625,-0.44761 6.82625,-0.0205 0,0.20519 0.12267,0.19517 0.39687,-0.0324 0.3507,-0.29105 0.39688,0.33629 0.39688,5.39157 v 5.72093 h 7.40833 7.40834 V 169.44571 129.22904 H 100.76427 57.108019 v 40.04028 c 0,22.02215 0.08128,40.12156 0.180619,40.2209 0.09934,0.0993 3.343794,0.14895 7.209896,0.11024 l 7.029276,-0.0704 z m 7.215489,0.24016 -0.07174,-5.22552 h -3.042708 -3.042709 l -0.07174,5.22552 -0.07174,5.22552 h 3.186187 3.186186 z m 7.14375,0 -0.07174,-5.22552 H 82.7726 79.729892 l -0.07174,5.22552 -0.07174,5.22552 h 3.186186 3.186187 z m 7.14375,0 -0.07174,-5.22552 h -3.042708 -3.042708 l -0.07174,5.22552 -0.07174,5.22552 h 3.186186 3.186187 z m 7.143751,0 -0.0717,-5.22552 h -3.042709 -3.042708 l -0.07174,5.22552 -0.07174,5.22552 h 3.186186 3.186191 z m 7.14375,0 -0.0717,-5.22552 h -3.04271 -3.04271 l -0.0717,5.22552 -0.0717,5.22552 h 3.18619 3.18619 z m 7.14375,0 -0.0717,-5.22552 h -3.04271 -3.04271 l -0.0717,5.22552 -0.0717,5.22552 h 3.18619 3.18619 z m 7.14375,0 -0.0717,-5.22552 h -3.04271 -3.04271 l -0.0717,5.22552 -0.0717,5.22552 h 3.18619 3.18619 z m 7.14375,0 -0.0717,-5.22552 h -3.04271 -3.04271 l -0.0717,5.22552 -0.0717,5.22552 h 3.18619 3.18619 z m 15.88149,-77.91979 0.0782,-1.78594 H 100.90865 57.108019 v 1.85287 1.85287 l 43.722391,-0.0669 43.7224,-0.0669 z m -22.17094,-7.73906 v -5.15938 H 100.76427 79.068435 v 5.15938 5.15937 H 100.76427 122.4601 Z M 107.11427,96.553002 V 80.281127 h -6.35 -6.350002 v 16.095486 c 0,8.852517 0.07937,16.174857 0.176389,16.271877 0.09701,0.097 2.954513,0.17639 6.350003,0.17639 h 6.17361 z"
         id="path1" /></g><rect
       style="fill:#008000;fill-opacity:0.14794;stroke-width:0.124631"
       id="REF-"
       width="1.6198221"
       height="2.891402"
       x="85.401016"
       y="127.77039" /><rect
       style="fill:#008000;fill-opacity:0.14794;stroke-width:0.124631"
       id="HW"
       width="1.6198221"
       height="2.891402"
       x="87.417603"
       y="127.77026" /><rect
       style="fill:#008000;fill-opacity:0.14794;stroke-width:0.124631"
       id="HV"
       width="1.6198221"
       height="2.891402"
       x="89.434273"
       y="127.77026" /><rect
       style="fill:#008000;fill-opacity:0.14794;stroke-width:0.124631"
       id="HU"
       width="1.6198221"
       height="2.891402"
       x="91.450935"
       y="127.77026" /><rect
       style="fill:#008000;fill-opacity:0.14794;stroke-width:0.124631"
       id="REF+"
       width="1.6198221"
       height="2.891402"
       x="93.467606"
       y="127.77026" /><rect
       style="fill:#008000;fill-opacity:0.14794;stroke-width:0.124631"
       id="U"
       width="1.6198221"
       height="2.891402"
       x="95.467606"
       y="127.77026" /><rect
       style="fill:#008000;fill-opacity:0.14794;stroke-width:0.124631"
       id="V"
       width="1.6198221"
       height="2.891402"
       x="97.516373"
       y="127.77026" /><rect
       style="fill:#008000;fill-opacity:0.14794;stroke-width:0.124631"
       id="W"
       width="1.6198221"
       height="2.891402"
       x="99.590363"
       y="127.77026" /><text
       xml:space="preserve"
       style="font-size:2.35185px;font-family:'Britannic Bold';-inkscape-font-specification:'Britannic Bold, ';fill:#ffffff;fill-opacity:1;stroke-width:0.110243"
       x="85.715843"
       y="127.12131"
       id="text31"><tspan
         sodipodi:role="line"
         id="tspan31"
         style="font-size:2.35185px;fill:#ffffff;fill-opacity:1;stroke-width:0.110243"
         x="85.715843"
         y="127.12131">REF-</tspan></text><text
       xml:space="preserve"
       style="font-size:2.35185px;font-family:'Britannic Bold';-inkscape-font-specification:'Britannic Bold, ';fill:#ffffff;fill-opacity:1;stroke-width:0.110243"
       x="87.733665"
       y="127.12141"
       id="text31-6"><tspan
         sodipodi:role="line"
         id="tspan31-1"
         style="font-size:2.35185px;fill:#ffffff;fill-opacity:1;stroke-width:0.110243"
         x="87.733665"
         y="127.12141">HW</tspan></text><text
       xml:space="preserve"
       style="font-size:2.35185px;font-family:'Britannic Bold';-inkscape-font-specification:'Britannic Bold, ';fill:#ffffff;fill-opacity:1;stroke-width:0.110243"
       x="89.750328"
       y="127.12141"
       id="text31-6-0"><tspan
         sodipodi:role="line"
         id="tspan31-1-6"
         style="font-size:2.35185px;fill:#ffffff;fill-opacity:1;stroke-width:0.110243"
         x="89.750328"
         y="127.12141">HV</tspan></text><text
       xml:space="preserve"
       style="font-size:2.35185px;font-family:'Britannic Bold';-inkscape-font-specification:'Britannic Bold, ';fill:#ffffff;fill-opacity:1;stroke-width:0.110243"
       x="91.766998"
       y="127.12141"
       id="text31-6-8"><tspan
         sodipodi:role="line"
         id="tspan31-1-3"
         style="font-size:2.35185px;fill:#ffffff;fill-opacity:1;stroke-width:0.110243"
         x="91.766998"
         y="127.12141">HU</tspan></text><text
       xml:space="preserve"
       style="font-size:2.35185px;font-family:'Britannic Bold';-inkscape-font-specification:'Britannic Bold, ';fill:#ffffff;fill-opacity:1;stroke-width:0.110243"
       x="95.794846"
       y="127.10397"
       id="text31-6-8-3"><tspan
         sodipodi:role="line"
         id="tspan31-1-3-8"
         style="font-size:2.35185px;fill:#ffffff;fill-opacity:1;stroke-width:0.110243"
         x="95.794846"
         y="127.10397">U</tspan></text><text
       xml:space="preserve"
       style="font-size:2.35185px;font-family:'Britannic Bold';-inkscape-font-specification:'Britannic Bold, ';fill:#ffffff;fill-opacity:1;stroke-width:0.110243"
       x="97.942322"
       y="127.08244"
       id="text31-6-8-3-0"><tspan
         sodipodi:role="line"
         id="tspan31-1-3-8-4"
         style="font-size:2.35185px;fill:#ffffff;fill-opacity:1;stroke-width:0.110243"
         x="97.942322"
         y="127.08244">V</tspan></text><text
       xml:space="preserve"
       style="font-size:2.35185px;font-family:'Britannic Bold';-inkscape-font-specification:'Britannic Bold, ';fill:#ffffff;fill-opacity:1;stroke-width:0.110243"
       x="100.01649"
       y="127.08772"
       id="text31-6-8-3-01"><tspan
         sodipodi:role="line"
         id="tspan31-1-3-8-7"
         style="font-size:2.35185px;fill:#ffffff;fill-opacity:1;stroke-width:0.110243"
         x="100.01649"
         y="127.08772">W</tspan></text><text
       xml:space="preserve"
       style="font-size:2.35185px;font-family:'Britannic Bold';-inkscape-font-specification:'Britannic Bold, ';fill:#ffffff;fill-opacity:1;stroke-width:0.110243"
       x="93.782516"
       y="127.12131"
       id="text31-4"><tspan
         sodipodi:role="line"
         id="tspan31-4"
         style="font-size:2.35185px;fill:#ffffff;fill-opacity:1;stroke-width:0.110243"
         x="93.782516"
         y="127.12131">REF+</tspan></text></g></svg>
